<svg xmlns="http://www.w3.org/2000/svg" width="256" height="256" viewBox="0 0 256 256">
  <defs>
    <linearGradient id="g" x1="0" x2="1" y1="0" y2="1">
      <stop offset="0" stop-color="#4f80ff"/>
      <stop offset="1" stop-color="#3ac7a5"/>
    </linearGradient>
  </defs>
  <rect width="256" height="256" rx="56" fill="#0f1524"/>
  <circle cx="128" cy="120" r="64" fill="url(#g)"/>
  <path d="M128 44c-42 0-76 34-76 76s34 76 76 76c25 0 47-12 61-30-11 6-24 10-38 10-42 0-76-34-76-76 0-19 7-36 18-50-15 13-25 33-25 55 0 40 32 72 72 72s72-32 72-72c0-15-4-29-12-40 6 12 10 25 10 40 0 42-34 76-76 76s-76-34-76-76 34-76 76-76z" fill="#fff" opacity=".15"/>
</svg>
