<svg xmlns="http://www.w3.org/2000/svg" viewBox="0 0 800 520">
  <defs>
    <linearGradient id="bg" x1="0" x2="1" y1="0" y2="1">
      <stop offset="0" stop-color="#16233f"/>
      <stop offset="1" stop-color="#0d1730"/>
    </linearGradient>
    <linearGradient id="accent" x1="0" x2="1" y1="0" y2="1">
      <stop offset="0" stop-color="#4f80ff"/>
      <stop offset="1" stop-color="#3ac7a5"/>
    </linearGradient>
  </defs>
  <rect width="800" height="520" fill="url(#bg)" rx="24"/>
  <g opacity=".5">
    <circle cx="620" cy="140" r="80" fill="url(#accent)"/>
    <circle cx="180" cy="220" r="120" fill="url(#accent)" opacity=".4"/>
  </g>
  <g fill="#dfe8ff" opacity=".9">
    <rect x="120" y="120" width="560" height="280" rx="18" fill="#101933" stroke="#1b2540"/>
    <rect x="140" y="160" width="200" height="18" rx="9" opacity=".6"/>
    <rect x="140" y="190" width="280" height="14" rx="7" opacity=".4"/>
    <rect x="140" y="220" width="260" height="14" rx="7" opacity=".35"/>
    <rect x="140" y="260" width="220" height="14" rx="7" opacity=".5"/>
    <rect x="140" y="290" width="180" height="14" rx="7" opacity=".25"/>
    <rect x="140" y="320" width="220" height="14" rx="7" opacity=".45"/>
    <rect x="400" y="260" width="240" height="110" rx="12" fill="#0f1524" stroke="#1b2540"/>
    <rect x="420" y="280" width="120" height="14" rx="7" opacity=".6"/>
    <rect x="420" y="306" width="160" height="12" rx="6" opacity=".35"/>
    <rect x="420" y="328" width="160" height="12" rx="6" opacity=".25"/>
  </g>
</svg>
